<svg width="22" height="22" viewBox="0 0 22 22" fill="none" xmlns="http://www.w3.org/2000/svg">
<path d="M11 0.916667C12.9943 0.916667 14.9438 1.50804 16.602 2.61601C18.2602 3.72398 19.5526 5.29879 20.3158 7.14127C21.079 8.98376 21.2787 11.0112 20.8896 12.9672C20.5005 14.9231 19.5402 16.7198 18.13 18.13C16.7198 19.5402 14.9231 20.5005 12.9672 20.8896C11.0112 21.2786 8.98377 21.079 7.14128 20.3158C5.29879 19.5526 3.72399 18.2602 2.61602 16.602C1.50805 14.9438 0.916671 12.9943 0.916671 11C0.916671 8.32573 1.97902 5.761 3.87001 3.87001C5.761 1.97901 8.32574 0.916667 11 0.916667ZM11 0C8.82441 0 6.69767 0.645139 4.88873 1.85383C3.07979 3.06253 1.66989 4.78049 0.83733 6.79048C0.00476615 8.80047 -0.213071 11.0122 0.211367 13.146C0.635804 15.2798 1.68345 17.2398 3.22183 18.7782C4.76021 20.3165 6.72022 21.3642 8.85401 21.7886C10.9878 22.2131 13.1995 21.9952 15.2095 21.1627C17.2195 20.3301 18.9375 18.9202 20.1462 17.1113C21.3549 15.3023 22 13.1756 22 11C22 8.08262 20.8411 5.28472 18.7782 3.22182C16.7153 1.15892 13.9174 0 11 0Z" fill="white"/>
<path d="M11.33 10.7433V3.17163H10.2942L10.3492 11.1466L16.3075 16.6375L16.995 15.8675L11.33 10.7433Z" fill="white"/>
</svg>
