<svg width="22" height="22" viewBox="0 0 22 22" fill="none" xmlns="http://www.w3.org/2000/svg">
<path d="M10.1671 21.9283C9.95779 21.8258 9.74852 21.713 9.52975 21.6208C9.50609 21.6081 9.48005 21.6016 9.45365 21.6016C9.42725 21.6016 9.4012 21.6081 9.37755 21.6208C8.42635 22.3382 7.16125 21.4978 7.20881 20.0015C7.2104 19.9707 7.2104 19.9399 7.20881 19.9092C6.98737 19.9294 6.76474 19.8903 6.56065 19.7956C6.35657 19.7008 6.17733 19.5533 6.03883 19.366C5.73509 18.9705 5.58511 18.4636 5.62031 17.9517C5.38305 17.8815 5.15095 17.7924 4.92593 17.6852C4.58791 17.4499 4.33654 17.095 4.21502 16.6817C4.09351 16.2683 4.10944 15.8222 4.26009 15.4202C4.29434 15.3514 4.30547 15.272 4.2916 15.1954C4.27773 15.1188 4.23971 15.0498 4.18399 15C3.35478 14.0702 2.72772 12.9534 2.34817 11.7305C2.14842 11.0848 2.04379 10.4084 1.8916 9.74223C1.85253 9.57317 1.78481 9.41333 1.69184 9.27078C1.20673 8.64559 0.740641 8.05115 0.226992 7.43621C0.161883 7.36482 0.104449 7.28574 0.0557756 7.20049C0.0110689 7.11678 -0.00751521 7.01982 0.00275903 6.92387C0.0130333 6.82793 0.051623 6.73808 0.112848 6.66754C0.139324 6.63227 0.172304 6.6033 0.209702 6.58246C0.2471 6.56163 0.288103 6.54938 0.33012 6.54649C0.372136 6.5436 0.414252 6.55013 0.453805 6.56568C0.493358 6.58122 0.529489 6.60544 0.559913 6.63679C0.629146 6.68718 0.690206 6.74951 0.740641 6.82127C1.28283 7.49771 1.83452 8.16389 2.37671 8.87107C2.48914 9.02279 2.56437 9.20253 2.59548 9.39377C2.72948 11.1033 3.34701 12.7274 4.36472 14.0468C6.14347 16.2811 7.94124 18.4949 9.7295 20.7086C9.81392 20.8508 9.94338 20.9552 10.0938 21.0023C10.2443 21.0495 10.4055 21.0361 10.5475 20.9649C10.6843 20.8977 10.8001 20.7895 10.8811 20.6531C10.9621 20.5167 11.0048 20.3581 11.0041 20.1962C11.0129 20.0486 10.9919 19.9008 10.9426 19.7628C10.8934 19.6248 10.817 19.5 10.7187 19.3968L7.96977 15.9326C7.90522 15.857 7.84786 15.7746 7.79856 15.6866C7.75261 15.604 7.73243 15.5076 7.74099 15.4117C7.74955 15.3158 7.78639 15.2254 7.84612 15.1537C7.86934 15.1175 7.89949 15.0871 7.93455 15.0646C7.9696 15.042 8.00873 15.0279 8.0493 15.023C8.08988 15.0181 8.13094 15.0227 8.16973 15.0364C8.20852 15.0501 8.24413 15.0726 8.27416 15.1024C8.35315 15.1669 8.42356 15.2428 8.48342 15.3279C9.75169 16.8994 11.02 18.4744 12.2882 20.0527C12.3684 20.1885 12.4851 20.2946 12.6228 20.3569C12.7605 20.4192 12.9126 20.4346 13.0587 20.4012C13.1829 20.3526 13.2951 20.274 13.3868 20.1715C13.4784 20.069 13.5471 19.9452 13.5875 19.8097C13.6279 19.6741 13.6389 19.5304 13.6198 19.3896C13.6007 19.2487 13.5519 19.1145 13.4772 18.9971C13.4191 18.9072 13.3556 18.8216 13.287 18.7408C12.1519 17.3265 11.0136 15.9155 9.87218 14.508C9.84254 14.4591 9.8074 14.4144 9.76755 14.3748C9.56779 14.1083 9.53926 13.8418 9.70096 13.6471C9.86267 13.4524 10.0624 13.4831 10.2812 13.7496L14.6472 19.1713C14.7137 19.2764 14.8011 19.3641 14.9032 19.4279C15.0053 19.4918 15.1193 19.5302 15.237 19.5402C15.3773 19.5398 15.5143 19.4935 15.6297 19.4075C15.7452 19.3216 15.8338 19.1999 15.8838 19.0585C15.9468 18.9066 15.9745 18.7404 15.9646 18.5744C15.9546 18.4083 15.9073 18.2473 15.8267 18.1054C15.7622 18.0087 15.6923 17.9163 15.6174 17.8287C14.1145 15.9634 12.6021 14.098 11.0992 12.2225C10.8424 11.9048 10.8044 11.6588 10.9756 11.4436C11.1468 11.2283 11.3561 11.2898 11.6034 11.5973L15.8362 16.8448C15.905 16.9544 15.9969 17.0449 16.1043 17.109C16.2118 17.1732 16.3318 17.209 16.4545 17.2137C16.5942 17.209 16.7292 17.1584 16.8414 17.0687C16.9537 16.9789 17.0377 16.8543 17.0823 16.7115C17.1389 16.5651 17.1633 16.4065 17.1534 16.2482C17.1435 16.0899 17.0996 15.9363 17.0252 15.7994C16.983 15.7301 16.9353 15.665 16.8825 15.6046L11.1753 8.50211L11.0802 8.39962L10.6997 8.86082C10.4631 9.15411 10.1708 9.38927 9.84264 9.55043C9.51445 9.71159 9.15799 9.79498 8.79732 9.79498C8.43665 9.79498 8.08019 9.71159 7.752 9.55043C7.4238 9.38927 7.13153 9.15411 6.89492 8.86082C6.80945 8.77279 6.74143 8.66701 6.69496 8.54987C6.64849 8.43273 6.62453 8.30666 6.62453 8.17926C6.62453 8.05187 6.64849 7.9258 6.69496 7.80866C6.74143 7.69152 6.80945 7.58574 6.89492 7.49771L9.93876 3.71584L10.1195 3.46986C9.65352 3.47646 9.20499 3.66178 8.85439 3.99256C8.35026 4.48451 8.33123 4.48451 7.90319 3.93106L5.43007 0.917867C5.36557 0.84589 5.30819 0.766891 5.25885 0.682141C5.20851 0.598487 5.18668 0.498597 5.19709 0.399529C5.20749 0.30046 5.2495 0.208357 5.31592 0.138946C5.33838 0.102022 5.36795 0.0707411 5.40263 0.0472308C5.4373 0.0237204 5.47627 0.00853162 5.51689 0.00269719C5.5575 -0.00313724 5.5988 0.000519452 5.63798 0.0134187C5.67717 0.026318 5.71331 0.0481575 5.74396 0.0774518C5.81213 0.14414 5.87571 0.216072 5.9342 0.29268L8.2266 3.13164C8.26811 3.19766 8.30622 3.26609 8.34074 3.33662C8.59757 3.16239 8.81634 2.98816 9.03512 2.86517C9.58482 2.55572 10.2192 2.46846 10.8234 2.6192C10.9164 2.6494 11.0157 2.6494 11.1087 2.6192C11.7513 2.19483 12.5066 2.01284 13.2558 2.10191C14.0049 2.19097 14.7052 2.54603 15.2465 3.11115H15.294L16.3594 1.78903L17.0252 0.958863C17.2155 0.733386 17.4152 0.702639 17.5769 0.88712C17.6529 0.989861 17.6902 1.11968 17.6814 1.25073C17.6726 1.38178 17.6183 1.50444 17.5294 1.5943C16.8825 2.39372 16.2452 3.19314 15.6269 3.98231C15.3987 4.25903 15.237 4.25903 14.9992 3.98231C14.7258 3.64265 14.3866 3.37172 14.0056 3.1886C13.6245 3.00548 13.2108 2.91463 12.7936 2.92245C12.3764 2.93026 11.9659 3.03656 11.591 3.23385C11.2161 3.43113 10.8859 3.71461 10.6236 4.0643C9.56462 5.383 8.50245 6.72562 7.4371 8.09215H7.38954C7.54452 8.30374 7.73858 8.47837 7.95944 8.60497C8.1803 8.73156 8.42315 8.80738 8.67261 8.82761C8.92207 8.84784 9.17271 8.81205 9.40867 8.7225C9.64463 8.63295 9.86077 8.49159 10.0434 8.30738C10.5285 7.79493 10.9946 7.22098 11.4226 6.66754C11.4797 6.5958 11.5273 6.52405 11.5843 6.46256C11.6146 6.42194 11.653 6.38915 11.6967 6.36663C11.7403 6.34411 11.788 6.33241 11.8364 6.33241C11.8848 6.33241 11.9325 6.34411 11.9762 6.36663C12.0198 6.38915 12.0582 6.42194 12.0885 6.46256C12.1561 6.54645 12.1933 6.65381 12.1933 6.76491C12.1933 6.876 12.1561 6.98336 12.0885 7.06725C11.9268 7.28248 11.746 7.46696 11.5558 7.68219C12.1472 8.66684 13.0439 9.39325 14.086 9.73198C14.3227 9.76748 14.5627 9.76748 14.7994 9.73198C14.8565 9.73198 14.9135 9.68074 14.9706 9.67049C15.0156 9.65674 15.0628 9.65308 15.1091 9.65971C15.1555 9.66635 15.2001 9.68315 15.2402 9.70908C15.2803 9.73501 15.3151 9.76951 15.3423 9.81047C15.3696 9.85143 15.3887 9.89796 15.3987 9.94721C15.4187 9.99895 15.4289 10.0545 15.4287 10.1105C15.4285 10.1666 15.4179 10.222 15.3975 10.2736C15.3771 10.3252 15.3474 10.3718 15.31 10.4108C15.2726 10.4498 15.2284 10.4804 15.1799 10.5007C14.8565 10.5929 14.5236 10.6339 14.2287 10.6954C14.1529 10.706 14.0762 10.706 14.0004 10.6954L17.1203 14.5797C17.8588 13.7699 18.4379 12.8078 18.823 11.751C19.0883 11.0055 19.2672 10.2275 19.3557 9.43476C19.3788 9.25097 19.4479 9.0774 19.5554 8.93256C20.1261 8.20489 20.7159 7.48746 21.2961 6.75978C21.572 6.42156 21.7527 6.44206 22 6.75978V7.06725L21.7241 7.47721C21.22 8.11264 20.6969 8.73783 20.1927 9.38352C20.1086 9.50006 20.053 9.6375 20.031 9.78323C19.8303 11.4997 19.1952 13.1237 18.1952 14.4773C18.005 14.7335 17.7767 14.9487 17.5674 15.1947C17.7364 15.4577 17.8459 15.7597 17.8872 16.0764C17.9285 16.3932 17.9004 16.716 17.8052 17.019C17.7287 17.3014 17.5819 17.5558 17.3807 17.7545C17.1794 17.9533 16.9315 18.0888 16.6638 18.1464C16.7665 18.5125 16.7652 18.9033 16.6601 19.2686C16.555 19.6339 16.3509 19.9569 16.074 20.1962C15.8243 20.4149 15.5071 20.5238 15.186 20.501C14.8649 20.4782 14.5637 20.3254 14.3428 20.0732C14.3035 20.3751 14.1806 20.6571 13.9902 20.8827C13.7999 21.1082 13.5509 21.2667 13.2757 21.3375C13.0006 21.4083 12.712 21.3881 12.4476 21.2796C12.1832 21.1711 11.9553 20.9793 11.7936 20.7291C11.659 21.016 11.4929 21.2844 11.299 21.5285C11.0511 21.7196 10.7829 21.8779 10.5 22L10.1671 21.9283ZM7.31345 18.9868L6.36224 17.8594C6.31772 18.0084 6.30833 18.167 6.3349 18.3209C6.36146 18.4747 6.42317 18.6191 6.51444 18.7408C6.59424 18.8716 6.71425 18.968 6.8534 19.0129C6.99254 19.0579 7.14195 19.0487 7.2754 18.9868H7.31345ZM8.01733 19.817C7.95895 19.9801 7.94584 20.1581 7.97962 20.3291C8.0134 20.5002 8.0926 20.6569 8.20757 20.7804C8.29115 20.889 8.40784 20.962 8.53679 20.9864C8.66574 21.0108 8.79854 20.985 8.91146 20.9136L8.01733 19.817ZM4.87837 15.9634C4.84829 16.1009 4.849 16.2442 4.88042 16.3814C4.91184 16.5186 4.97308 16.6458 5.0591 16.7525C5.12893 16.865 5.23025 16.9504 5.3483 16.9965C5.46634 17.0426 5.59496 17.0469 5.71543 17.0088L4.87837 15.9634Z" fill="#45454D"/>
</svg>
