<svg width="22" height="22" viewBox="0 0 22 22" fill="none" xmlns="http://www.w3.org/2000/svg">
<path d="M11.0318 0.967459C11.9884 0.975101 12.9215 1.28458 13.7133 1.85688C14.5052 2.42917 15.1205 3.23867 15.4816 4.18333C15.8427 5.12798 15.9335 6.1655 15.7425 7.16509C15.5515 8.16467 15.0873 9.08158 14.4083 9.80023C13.7294 10.5189 12.8661 11.0071 11.9274 11.2033C10.9886 11.3995 10.0164 11.295 9.13333 10.9029C8.25022 10.5107 7.49574 9.84856 6.965 8.99983C6.43426 8.15111 6.15103 7.15382 6.151 6.13369C6.151 4.76352 6.6614 3.44947 7.56993 2.48061C8.47846 1.51176 9.71068 0.967459 10.9955 0.967459H11.0318ZM10.9955 0C9.85912 0.0057345 8.74977 0.370338 7.80748 1.04779C6.8652 1.72525 6.13222 2.68519 5.70105 3.80647C5.26989 4.92775 5.15986 6.16011 5.38486 7.34801C5.60985 8.53591 6.15979 9.62611 6.96526 10.481C7.77073 11.3359 8.79563 11.9172 9.91061 12.1516C11.0256 12.3859 12.1807 12.2627 13.2301 11.7977C14.2795 11.3326 15.1762 10.5464 15.807 9.53835C16.4378 8.53031 16.7745 7.34558 16.7745 6.13369C16.7745 4.50861 16.1698 2.94995 15.0931 1.79993C14.0164 0.649921 12.5557 0.00256322 11.0318 0H10.9955Z" fill="#1F2041"/>
<path d="M21.1472 22C20.487 19.6863 19.1471 17.6602 17.3249 16.2203C15.5028 14.7805 13.295 14.0033 11.0272 14.0033C8.75939 14.0033 6.5516 14.7805 4.72949 16.2203C2.90737 17.6602 1.5674 19.6863 0.907216 22L0 21.7098C0.720745 19.1981 2.17845 16.9994 4.15863 15.4372C6.13881 13.8751 8.53689 13.032 11 13.032C13.4631 13.032 15.8612 13.8751 17.8414 15.4372C19.8215 16.9994 21.2793 19.1981 22 21.7098L21.1472 22Z" fill="#1F2041"/>
</svg>
