<svg width="21" height="22" viewBox="0 0 21 22" fill="none" xmlns="http://www.w3.org/2000/svg">
<path d="M10.3116 21.0833C8.27203 21.0833 6.27821 20.4785 4.58233 19.3454C2.88645 18.2122 1.56467 16.6016 0.784142 14.7173C0.00361377 12.8329 -0.200608 10.7594 0.197302 8.75896C0.595212 6.75853 1.57738 4.92102 3.01961 3.47879C4.46184 2.03657 6.29935 1.05439 8.29978 0.656485C10.3002 0.258575 12.3737 0.462797 14.2581 1.24333C16.1424 2.02385 17.753 3.34563 18.8862 5.04151C20.0193 6.7374 20.6241 8.73121 20.6241 10.7708C20.6193 13.5044 19.5313 16.1246 17.5983 18.0575C15.6654 19.9904 13.0452 21.0785 10.3116 21.0833ZM10.3116 1.09083C8.39674 1.08902 6.52431 1.6552 4.93123 2.71775C3.33816 3.7803 2.09603 5.29147 1.36196 7.0601C0.627901 8.82873 0.434896 10.7753 0.807366 12.6537C1.17983 14.532 2.10104 16.2577 3.45445 17.6124C4.80785 18.9671 6.53265 19.8899 8.41063 20.2642C10.2886 20.6384 12.2354 20.4472 14.0047 19.7149C15.7741 18.9825 17.2864 17.7418 18.3505 16.1497C19.4145 14.5576 19.9825 12.6857 19.9825 10.7708C19.9776 8.20661 18.9575 5.74866 17.1452 3.93462C15.3328 2.12058 12.8759 1.0981 10.3116 1.09083ZM16.5633 15.895H13.9508C13.7572 15.8941 13.566 15.8529 13.3892 15.774C13.2124 15.6951 13.054 15.5802 12.9241 15.4367C12.5666 15.0517 12.0075 14.4192 11.5216 13.7867C11.5216 14.0372 11.5216 14.3031 11.5216 14.5842C11.5216 15.0333 11.5216 15.3908 11.2833 15.6292C11.045 15.8675 10.66 15.8767 9.84415 15.8675H9.33998C5.25165 15.8675 2.47415 9.24 2.47415 8.29583C2.46263 8.15746 2.48034 8.01822 2.52614 7.88714C2.57194 7.75606 2.6448 7.63609 2.73998 7.535C3.06998 7.21417 3.65665 7.2325 4.57332 7.26H5.63665C6.55332 7.26 6.66332 7.88333 6.80082 8.48833C6.87742 8.98789 7.02885 9.47305 7.24998 9.9275C7.33856 10.0918 7.44963 10.243 7.57998 10.3767C7.60088 10.2123 7.60088 10.046 7.57998 9.88167C7.5836 9.73006 7.56507 9.57875 7.52498 9.4325C7.4183 9.4025 7.32271 9.34196 7.24998 9.25833C7.07542 9.06933 6.95583 8.83622 6.90413 8.58419C6.85243 8.33216 6.87059 8.07079 6.95665 7.82833C7.19498 7.27833 7.87332 7.27833 8.13915 7.27833H8.24915C10.0825 7.27833 10.7975 7.27833 11.2283 7.7275C11.6591 8.17667 11.5766 8.745 11.5125 9.86333V10.0833C11.8974 9.68171 12.1446 9.16806 12.2183 8.61666C12.3741 7.98417 12.5483 7.27833 13.3916 7.22333H14.3083C15.1662 7.11452 16.0377 7.20229 16.8566 7.48C16.9819 7.56026 17.0858 7.66979 17.1592 7.79915C17.2327 7.92851 17.2736 8.07381 17.2783 8.2225C17.3333 9.44167 15.5 11.3667 14.8217 11.9167C14.7643 11.9571 14.7172 12.0105 14.6842 12.0725C15.0009 12.2666 15.3069 12.4778 15.6008 12.705C16.2883 13.2275 17.0033 13.7775 17.37 14.1258C17.5094 14.2643 17.6041 14.4414 17.6417 14.6343C17.6793 14.8271 17.6581 15.0268 17.5808 15.2075C17.502 15.4125 17.3622 15.5883 17.1802 15.7113C16.9982 15.8342 16.7829 15.8984 16.5633 15.895ZM11.4116 12.925C11.4842 12.9243 11.556 12.9405 11.6212 12.9723C11.6864 13.0041 11.7434 13.0507 11.7875 13.1083C12.365 13.8233 12.9975 14.575 13.3916 15.0058C13.4616 15.0849 13.5477 15.1479 13.6442 15.1906C13.7407 15.2334 13.8453 15.2547 13.9508 15.2533H16.5633C16.6502 15.2524 16.7348 15.2258 16.8066 15.1769C16.8784 15.128 16.9341 15.0589 16.9667 14.9783C16.9958 14.9145 17.0044 14.8431 16.9912 14.7742C16.9781 14.7052 16.9439 14.642 16.8933 14.5933C16.3496 14.1052 15.7805 13.6463 15.1883 13.2183L14.2716 12.5492C14.1943 12.4956 14.1307 12.4245 14.0861 12.3417C14.0414 12.2588 14.0171 12.1666 14.015 12.0725C14.0241 11.9462 14.0618 11.8235 14.1253 11.7139C14.1889 11.6043 14.2765 11.5107 14.3816 11.44C15.2983 10.6792 16.6275 9.02917 16.5725 8.25917C16.5754 8.21143 16.565 8.16382 16.5423 8.12171C16.5196 8.07959 16.4856 8.04466 16.4442 8.02083C15.7244 7.84823 14.9811 7.79558 14.2441 7.865H13.3275C13.0066 7.865 12.915 8.12167 12.7591 8.78167C12.6656 9.4776 12.3431 10.1226 11.8425 10.615C11.7533 10.7165 11.6359 10.789 11.5052 10.8233C11.3746 10.8576 11.2367 10.8521 11.1091 10.8075C10.8891 10.7067 10.7975 10.4592 10.8158 10.0925V9.85417C10.8158 8.9375 10.8891 8.3875 10.6966 8.18583C10.5041 7.98417 9.65165 7.93833 8.18498 7.92917H8.16665C7.81832 7.92917 7.61665 7.98417 7.57082 8.09417C7.53627 8.21996 7.53239 8.35219 7.55951 8.47979C7.58662 8.60739 7.64394 8.72663 7.72665 8.8275C7.75726 8.86 7.79488 8.88508 7.83665 8.90083C8.13915 9.05667 8.20332 9.27667 8.24915 9.8175C8.24915 10.1108 8.31332 10.8808 7.81832 11.0367C7.32332 11.1925 6.90165 10.5142 6.70915 10.2208C6.43939 9.72454 6.2477 9.18966 6.14082 8.635C5.99415 7.98417 5.94832 7.8925 5.59998 7.8925H4.49998C4.05518 7.8206 3.59968 7.85516 3.17082 7.99333C3.1111 8.0822 3.08509 8.18948 3.09748 8.29583C3.09748 9.1025 5.78332 15.2258 9.33082 15.2258H9.83498C10.1663 15.2584 10.5007 15.2367 10.825 15.1617C10.8762 14.9706 10.8947 14.7723 10.88 14.575C10.88 14.135 10.8983 13.7317 10.935 13.365C10.9446 13.267 10.9828 13.174 11.0447 13.0974C11.1066 13.0209 11.1895 12.9641 11.2833 12.9342L11.4116 12.925Z" fill="#45454D"/>
</svg>
