<svg width="29" height="21" viewBox="0 0 29 21" fill="none" xmlns="http://www.w3.org/2000/svg">
<path d="M21.5096 0.559998C20.4712 0.559998 19.5625 0.821435 18.9135 1.21359C19.6923 1.60575 20.2115 2.25934 20.601 3.04366C21.25 4.35085 21.25 5.78876 20.9904 6.83451C21.1202 7.22666 21.1202 7.61882 21.1202 8.01098C20.9904 9.05673 20.601 9.57961 20.2115 9.97176C20.0817 10.4946 19.8221 11.0175 19.5625 11.5404C19.5625 11.6711 19.5625 11.8018 19.5625 11.9325C19.8221 12.0633 20.3413 12.3247 20.7308 12.4554C22.0288 12.9783 23.976 13.7626 24.7548 15.8541H27.4808C27.6106 15.8541 27.7404 15.7234 27.8702 15.7234C28 15.7234 28 15.462 28 15.3312C27.8702 12.9783 26.0529 12.3247 24.625 11.6711C23.976 11.4097 23.1971 11.1482 23.0673 10.7561C23.0673 10.3639 23.0673 10.1025 23.0673 9.71032V9.5796C23.3269 9.18745 23.7163 8.53385 23.8462 8.01098C24.1058 7.88026 24.4952 7.4881 24.4952 6.70379C24.4952 6.31163 24.4952 6.05019 24.3654 5.78876C24.625 5.00444 24.625 3.69725 24.1058 2.78222C23.7163 1.99791 23.0673 1.47503 22.1587 1.34431L21.899 0.952154C22.0288 0.690716 21.7692 0.559998 21.5096 0.559998ZM16.5769 1.08287C15.149 1.08287 13.9808 1.47503 13.0721 2.25934C13.5913 2.6515 13.9808 3.17438 14.3702 3.82797C15.0192 5.13516 15.149 6.70379 14.7596 8.1417C14.8894 8.53385 14.8894 8.92601 14.8894 9.44889C14.7596 10.4946 14.3702 11.279 13.9808 11.6711C13.851 12.194 13.5913 12.8476 13.2019 13.3705C13.2019 13.6319 13.2019 13.7626 13.2019 14.024C13.4615 14.1548 14.1106 14.5469 14.5 14.6776C15.9279 15.3312 18.1346 16.1156 18.9135 18.4685H23.3269C23.4567 18.4685 23.5865 18.3378 23.7163 18.3378C23.8462 18.2071 23.8462 18.0763 23.8462 17.9456C23.7163 15.3312 21.6394 14.5469 20.0817 13.8933C19.3029 13.5012 18.524 13.2397 18.2644 12.7169C18.2644 12.3247 18.2644 11.9325 18.2644 11.5404V11.4097C18.6538 11.0175 18.9135 10.2332 19.1731 9.5796C19.4327 9.44889 19.8221 8.92601 19.9519 8.1417C19.9519 7.74954 19.9519 7.35738 19.8221 7.09595C20.2115 6.18091 20.2115 4.87372 19.5625 3.69725C19.1731 2.78222 18.3942 2.25934 17.3558 2.12863L17.0962 1.47503C17.0962 1.21359 16.8365 1.08287 16.5769 1.08287ZM10.2163 1.73647C8.13942 1.73647 6.58173 2.52078 5.67308 3.95869C4.76442 5.13516 4.63462 6.70379 5.15385 8.1417C5.02404 8.40313 4.89423 8.79529 4.89423 9.18745C5.02404 10.2332 5.41346 10.6254 5.80289 10.8868C5.93269 11.6711 6.32212 12.4554 6.71154 12.8476V12.9783C6.71154 13.3705 6.71154 13.7626 6.71154 14.2855C6.45192 14.8084 5.67308 15.2005 4.76442 15.5927C3.20673 16.2463 1.12981 17.1613 1 20.0371C1 20.1678 1 20.2986 1.12981 20.4293C1.25962 20.56 1.38942 20.56 1.51923 20.56H17.4856C17.6154 20.56 17.7452 20.4293 17.875 20.4293C18.0048 20.2986 18.0048 20.1678 18.0048 20.0371C17.875 17.1613 15.6683 16.377 13.9808 15.5927C13.0721 15.2005 12.1635 14.8084 11.9038 14.2855C11.9038 13.7626 11.9038 13.3705 11.9038 12.9783V12.8476C12.2933 12.4554 12.6827 11.5404 12.8125 10.8868C13.2019 10.6254 13.4615 10.2332 13.5913 9.31817C13.5913 8.92601 13.5913 8.53385 13.4615 8.1417C13.851 7.22666 13.851 5.52732 13.2019 4.35085C12.8125 3.3051 12.0337 2.78222 10.9952 2.6515L10.7356 1.99791C10.6058 1.86719 10.3462 1.73647 10.2163 1.73647Z" stroke="white" stroke-width="0.5" stroke-miterlimit="10"/>
</svg>
